<svg width="1030" height="398" viewBox="0 0 1030 398" fill="none" xmlns="http://www.w3.org/2000/svg">
<path d="M198.722 118.324L198.833 148.828H130.255C130.255 141.703 130.181 136.619 130.032 133.576L129.921 118.547L198.722 118.324ZM128.808 118.547L129.921 117.434V118.547H128.808ZM199.167 258.709L199.278 259.711L199.39 276.41C199.39 279.453 199.241 283.09 198.944 287.32C198.647 291.551 198.388 293.74 198.165 293.889L196.161 294.111H155.638L150.962 294.557C139.384 294.557 132.333 294.408 129.81 294.111V293.332L129.698 291.217V286.207C129.698 271.586 129.921 259.451 130.366 249.803L131.591 164.08V160.74L140.274 160.629L142.167 160.74H145.396L148.179 160.852L149.626 160.74H157.642L159.312 160.629L197.274 161.074C197.571 161 197.794 160.963 197.942 160.963C198.091 160.963 198.165 161.186 198.165 161.631L198.276 172.207C198.351 179.258 198.499 188.721 198.722 200.596C198.944 212.396 199.056 220.746 199.056 225.645L198.944 239.561V245.461L199.278 251.361V254.812C199.278 254.887 199.241 255.035 199.167 255.258V258.709ZM243.253 160.852L273.089 160.74C273.46 162.299 274.128 164.748 275.093 168.088C276.058 171.428 276.985 174.768 277.876 178.107L279.991 186.457C282.96 178.961 284.778 174.805 285.446 173.988L287.228 171.762C294.724 161.223 306.228 155.953 321.739 155.953C329.087 155.953 336.063 158.18 342.669 162.633C349.349 167.012 354.544 172.764 358.255 179.889C361.966 186.939 363.821 194.398 363.821 202.266C363.821 203.156 363.71 203.861 363.487 204.381V272.848L363.599 294.111H298.472L298.249 238.447L298.694 227.092C298.694 215.736 295.688 210.059 289.677 210.059C283.22 210.059 279.991 215.439 279.991 226.201C279.991 228.576 280.028 230.209 280.103 231.1V232.77L280.214 234.662V294L247.038 294.111H213.751L213.64 227.314V160.74L243.253 160.852ZM522.798 160.629L524.913 160.74H533.485C533.931 160.74 534.562 160.703 535.378 160.629C536.269 160.555 537.011 160.518 537.604 160.518C536.937 164.006 534.747 168.682 531.036 174.545C529.774 176.029 528.624 177.811 527.585 179.889V179.777C523.8 185.492 516.675 197.441 506.21 215.625C511.554 227.129 516.378 237.297 520.683 246.129C524.987 254.887 528.327 261.715 530.702 266.613L544.173 294.111H467.579L459.897 271.178C456.78 262.123 452.958 250.174 448.431 235.33L444.2 244.904V293.889C437.001 294.111 425.534 294.223 409.8 294.223C394.065 294.223 381.745 294.148 372.839 294V119.326H408.241L443.644 119.215C443.644 128.195 443.718 144.338 443.866 167.643C444.089 190.947 444.2 207.312 444.2 216.738L448.431 204.27C451.103 195.734 456.001 181.188 463.126 160.629H522.798ZM639.804 297.451L630.897 298.008C626.37 298.008 621.917 297.488 617.538 296.449C614.569 296.449 610.562 295.67 605.515 294.111C588.593 290.104 575.976 283.164 567.663 273.293L565.659 270.955C559.202 262.643 555.009 251.473 553.079 237.445L552.745 235.107C552.448 232.732 552.3 229.912 552.3 226.646C552.3 223.307 552.931 218.816 554.192 213.176C558.868 192.32 568.702 177.922 583.694 169.98L598.724 161.965C609.856 157.957 623.735 155.953 640.36 155.953C646.669 155.953 652.495 156.77 657.839 158.402L660.065 159.07C659.991 159.07 659.954 159.033 659.954 158.959H660.177C685.337 165.639 702.073 176.697 710.386 192.135L710.608 192.914C714.319 200.41 716.806 208.797 718.067 218.074L715.507 217.184H645.815L645.259 213.064C644.071 204.529 642.067 198.852 639.247 196.031L637.021 194.695C630.489 195.141 626.815 204.047 625.999 221.414C625.925 223.789 625.813 225.199 625.665 225.645L625.776 229.207L626.11 235.664C626.11 236.184 626.147 236.74 626.222 237.334L627.335 238.447H626.11C626.481 244.014 627.632 248.281 629.562 251.25C631.565 254.219 633.569 255.703 635.573 255.703C639.358 255.703 641.956 253.402 643.366 248.801C644.776 244.199 645.481 240.006 645.481 236.221C651.196 235.924 659.806 235.775 671.31 235.775H675.54L686.228 235.887H696.915L718.401 235.998C716.101 259.822 704.856 276.67 684.669 286.541C683.185 287.061 681.144 287.914 678.546 289.102L674.315 291.105C662.515 295.633 651.716 297.896 641.919 297.896C640.88 297.896 640.175 297.748 639.804 297.451ZM784.308 220.078L785.421 220.189H788.093C790.616 220.189 792.583 220.004 793.993 219.633L800.005 218.854C810.247 218.111 816.407 215.365 818.485 210.615C819.524 208.24 820.044 205.234 820.044 201.598C819.599 200.855 819.376 199.445 819.376 197.367C819.376 195.289 818.3 193.1 816.147 190.799C814.069 188.498 811.583 187.348 808.688 187.348H808.132C801.007 187.348 797.444 193.396 797.444 205.494C797.073 206.088 796.442 206.311 795.552 206.162C794.735 206.014 792.694 205.939 789.429 205.939H731.983C732.354 200.818 733.69 195.289 735.991 189.352C740.37 177.922 748.831 169.721 761.374 164.748C773.991 159.701 786.497 156.955 798.892 156.51L805.571 156.176L809.134 155.842C809.579 155.842 810.024 155.953 810.47 156.176H811.917L816.927 155.953C817.966 155.953 820.304 156.213 823.94 156.732L827.169 157.178C827.688 157.252 828.505 157.289 829.618 157.289C830.731 157.289 833.069 157.549 836.632 158.068C840.194 158.514 844.647 159.775 849.991 161.854C868.101 168.979 879.085 182.635 882.944 202.822C884.577 211.357 885.394 220.82 885.394 231.211C885.913 232.918 886.173 234.477 886.173 235.887L885.616 243.568V256.482C885.69 256.631 885.728 257.262 885.728 258.375L885.505 265.945V266.947C885.728 267.318 885.839 267.838 885.839 268.506L885.728 269.508V271.846C885.728 278.896 886.804 285.576 888.956 291.885L890.069 294.334H839.749L835.741 294.223C832.772 294.223 830.509 294.26 828.95 294.334C826.575 289.881 824.312 283.795 822.159 276.076C821.194 278.08 819.524 280.381 817.149 282.979C814.849 285.502 813.142 286.764 812.028 286.764C801.044 292.107 792.694 295.15 786.979 295.893C778.519 297.303 773.954 298.008 773.286 298.008C772.692 298.008 772.396 298.008 772.396 298.008C754.657 298.008 741.261 291.848 732.206 279.527C727.679 273.219 725.415 265.908 725.415 257.596C725.415 239.561 733.802 228.502 750.575 224.42C754.88 223.381 763.192 222.305 775.513 221.191L779.187 220.857L784.308 220.078ZM820.823 245.906L820.935 242.344C820.935 238.633 820.638 235.07 820.044 231.656C818.411 232.547 816.036 233.549 812.919 234.662C809.802 235.775 807.315 236.74 805.46 237.557C803.604 238.299 801.897 239.672 800.339 241.676C798.854 243.605 798.112 246.277 798.112 249.691C798.112 253.105 799.188 256.223 801.341 259.043C803.567 261.863 805.979 263.273 808.577 263.273C814.144 263.273 818.114 261.27 820.489 257.262L820.712 256.148L820.823 249.246V245.906ZM901.87 160.74L931.483 160.629H961.097L963.546 175.547C965.253 186.012 966.255 191.949 966.552 193.359H970.448C973.194 180.668 978.464 171.65 986.257 166.307L990.71 163.746C990.933 163.301 992.269 162.484 994.718 161.297L994.272 161.408L996.833 160.406C1004.11 157.512 1010.38 156.027 1015.65 155.953C1016.76 155.953 1017.5 156.027 1017.87 156.176H1021.99V218.297C1020.43 217.926 1017.99 217.74 1014.65 217.74C1011.31 217.74 1007.85 218.223 1004.29 219.188C1000.8 220.152 997.835 221.414 995.386 222.973C993.011 224.457 990.933 226.387 989.151 228.762C983.659 236.109 980.913 247.131 980.913 261.826L981.136 273.516V294L941.503 294.111H901.981L901.87 227.648V160.74Z" fill="url(#paint0_linear_255_189)"/>
<path fill-rule="evenodd" clip-rule="evenodd" d="M27.7275 122.818H96.9304L96.9304 294.691H27.7275L27.7287 216.52L27.7275 122.818Z" fill="#C6C6C6"/>
<path d="M48.2475 151.176H47.0312V303.673L48.2487 304.267L48.2475 151.176Z" fill="white"/>
<path d="M57.317 170.011C57.275 171.07 57.5448 172.381 57.3788 173.428C57.3764 173.443 57.3741 173.458 57.3718 173.472C57.3039 173.9 57.206 174.337 57.0875 174.865C57.0725 174.932 57.0567 175.001 57.0409 175.071C56.9011 175.697 56.7334 176.466 56.547 177.513C55.9211 181.03 56.3371 183.803 56.4666 184.666C56.6461 185.861 56.7042 187.111 56.7254 188.599C56.7349 189.266 56.737 189.98 56.7392 190.759C56.7399 190.989 56.7395 191.225 56.7404 191.467C56.7411 191.663 56.5307 191.826 56.2697 191.83C56.0086 191.835 55.7963 191.679 55.7956 191.483C55.7947 191.246 55.7939 191.015 55.7933 190.79C55.7933 190.789 55.7933 190.788 55.7933 190.787C55.7909 189.993 55.7887 189.27 55.7791 188.599C55.7579 187.133 55.7006 185.918 55.5265 184.759C55.3941 183.878 54.9691 181.036 55.6104 177.432C55.7987 176.374 55.9671 175.597 56.1078 174.967C56.1232 174.898 56.1386 174.831 56.1532 174.766C56.1536 174.764 56.154 174.763 56.1544 174.761C56.2736 174.23 56.3679 173.812 56.4328 173.402C56.434 173.393 56.4352 173.385 56.4363 173.376C56.6042 172.317 56.3315 171.031 56.3722 170.004C56.3802 169.808 56.5983 169.65 56.8592 169.652C57.12 169.654 57.3246 169.815 57.317 170.011ZM60.4193 241.514C60.7654 242.536 60.7272 243.896 60.5731 245.097C60.4179 246.307 60.1387 247.401 59.9673 247.916C59.7998 248.42 59.7456 248.979 59.7122 249.647C59.7046 249.8 59.698 249.959 59.6912 250.123C59.6688 250.665 59.6436 251.269 59.5689 251.931C59.3855 253.559 59.3195 254.808 59.3034 255.796C59.2955 256.284 59.2997 256.709 59.308 257.085C59.3131 257.318 59.3201 257.534 59.3266 257.737C59.3266 257.738 59.3266 257.738 59.3266 257.738C59.3511 258.504 59.369 259.076 59.2614 259.602C59.0698 260.537 58.9 261.301 58.5682 262.223C58.1108 263.495 58.165 265.306 58.4797 266.485C58.4969 266.549 58.5153 266.616 58.5333 266.683C58.7627 267.537 59.0451 268.589 59.2555 270.167C59.4304 271.477 59.4166 272.62 59.3674 273.631C59.3533 273.921 59.3357 274.197 59.3196 274.463C59.279 275.133 59.2424 275.732 59.2637 276.297C59.2896 276.985 59.3039 277.615 59.3081 278.194C59.3254 280.564 59.1744 282.07 58.9678 283.09C58.77 284.067 58.5155 284.612 58.3317 285.006C58.2762 285.125 58.2263 285.23 58.1873 285.328C57.839 286.21 57.6824 287.02 57.4941 287.994C57.4523 288.21 57.4087 288.435 57.3613 288.67C57.2029 289.455 57.2303 290.041 57.2972 290.5C57.3265 290.701 57.3626 290.878 57.3974 291.044C57.3982 291.047 57.399 291.05 57.3997 291.054C57.4046 291.077 57.409 291.1 57.4137 291.123C57.4173 291.14 57.4219 291.157 57.4254 291.174C57.4301 291.181 57.4332 291.187 57.4359 291.192C57.438 291.195 57.4395 291.198 57.4405 291.2C57.4409 291.2 57.4413 291.201 57.4417 291.201C57.4598 291.234 57.467 291.262 57.4685 291.268C57.4711 291.278 57.4723 291.287 57.4731 291.291C57.4775 291.315 57.48 291.346 57.4813 291.367C57.4847 291.42 57.4886 291.512 57.4929 291.655C57.5066 291.779 57.5298 291.899 57.5593 292.048C57.5613 292.057 57.5632 292.066 57.5652 292.076C57.594 292.221 57.6271 292.392 57.6595 292.605C57.689 292.8 57.503 292.978 57.2436 293.004C56.9843 293.03 56.7502 292.894 56.7206 292.7C56.69 292.498 56.6586 292.339 56.6297 292.193C56.6278 292.184 56.6258 292.175 56.6239 292.166C56.5938 292.014 56.5657 291.87 56.5493 291.715C56.5439 291.663 56.5396 291.61 56.5365 291.56C56.5248 291.47 56.5048 291.368 56.4794 291.245C56.4743 291.221 56.4697 291.195 56.4643 291.169C56.4295 291.003 56.3889 290.809 56.3571 290.591C56.2826 290.079 56.2546 289.431 56.427 288.576C56.4722 288.352 56.5142 288.135 56.5551 287.922C56.7438 286.945 56.9112 286.075 57.2809 285.139C57.3316 285.01 57.3896 284.887 57.451 284.756C57.633 284.365 57.8507 283.899 58.0335 282.996C58.2308 282.022 58.3808 280.551 58.3628 278.194C58.3585 277.627 58.3444 277.008 58.3189 276.331C58.2965 275.739 58.3358 275.099 58.3772 274.417C58.3929 274.157 58.4082 273.891 58.4214 273.619C58.4699 272.623 58.4831 271.517 58.3142 270.251C58.1085 268.709 57.8344 267.686 57.6059 266.835C57.5978 266.805 57.5896 266.776 57.5815 266.747C57.5717 266.71 57.5619 266.674 57.5524 266.638C57.217 265.382 57.1506 263.455 57.656 262.05C57.9732 261.169 58.1365 260.437 58.3271 259.507C58.4208 259.049 58.4053 258.56 58.3818 257.81C58.3752 257.599 58.3688 257.367 58.3632 257.11C58.3548 256.727 58.3504 256.294 58.3584 255.796C58.3747 254.793 58.4412 253.529 58.6265 251.885C58.6988 251.244 58.7229 250.666 58.7453 250.127C58.7522 249.959 58.7594 249.795 58.7674 249.634C58.8009 248.963 58.8556 248.339 59.0493 247.757C59.2085 247.279 59.4809 246.219 59.6318 245.043C59.7839 243.858 59.8067 242.601 59.5025 241.702C59.4709 241.608 59.4396 241.514 59.4081 241.42C59.1369 240.609 58.8605 239.783 58.4005 239.117C56.9632 237.634 56.5126 235.553 56.4443 233.397C56.3751 231.216 56.697 228.959 56.7846 227.167C56.787 227.12 56.7893 227.073 56.7916 227.026C56.9925 222.913 56.967 219.923 56.9582 218.904C56.9578 218.856 56.9574 218.813 56.9571 218.774C56.9568 218.739 56.9561 218.708 56.9559 218.68C56.9535 218.265 56.9199 217.898 56.8848 217.513C56.8829 217.492 56.8809 217.471 56.879 217.45C56.8421 217.043 56.806 216.616 56.8091 216.112C56.8209 214.236 56.7779 212.707 56.7322 211.384C56.7277 211.253 56.7235 211.125 56.7192 210.998C56.7154 210.887 56.7117 210.777 56.7078 210.668C56.7078 210.668 56.7078 210.667 56.7078 210.666C56.6711 209.647 56.6381 208.743 56.6379 207.885C56.6374 206.321 56.5776 205.264 56.5132 204.442C56.493 204.184 56.4724 203.947 56.4526 203.723C56.4099 203.238 56.3725 202.814 56.3594 202.378C56.3349 201.557 56.27 200.801 56.2068 200.056C56.2012 199.99 56.1961 199.924 56.1905 199.858C56.1225 199.051 56.0594 198.251 56.0577 197.407C56.0573 197.211 56.2696 197.048 56.5307 197.044C56.7916 197.04 57.0033 197.196 57.0037 197.392C57.0053 198.212 57.0661 198.992 57.1341 199.799C57.1397 199.865 57.1459 199.932 57.1516 199.999C57.2146 200.742 57.2792 201.511 57.3042 202.348C57.3168 202.769 57.352 203.168 57.3939 203.644C57.4139 203.87 57.4355 204.114 57.4568 204.386C57.5222 205.221 57.5833 206.291 57.5838 207.871C57.5841 208.718 57.6159 209.611 57.6525 210.629C57.6569 210.75 57.6613 210.873 57.6658 210.998C57.6699 211.114 57.6741 211.232 57.6782 211.351C57.7239 212.678 57.7669 214.215 57.7551 216.101C57.7521 216.578 57.7858 216.982 57.8226 217.387C57.8246 217.41 57.8265 217.433 57.8285 217.456C57.8633 217.837 57.8993 218.225 57.9018 218.663C57.9022 218.722 57.9022 218.797 57.903 218.887C57.9118 219.907 57.9381 222.909 57.7364 227.038C57.7356 227.051 57.7349 227.064 57.7341 227.077C57.599 229.843 57.5227 231.404 57.7562 232.579C57.8149 232.874 57.8596 233.146 57.8941 233.397C57.968 233.935 57.9948 234.381 58.0102 234.769C58.0145 234.878 58.0186 234.98 58.0218 235.078C58.0359 235.501 58.0472 235.835 58.1127 236.169C58.3109 237.179 58.6356 237.904 59.2416 238.78C59.7552 239.524 60.059 240.434 60.325 241.231C60.3254 241.233 60.3258 241.234 60.3261 241.235C60.3577 241.33 60.3885 241.423 60.4193 241.514ZM58.2875 295.42C58.2796 295.616 58.0624 295.773 57.8017 295.771C57.5407 295.769 57.335 295.608 57.3427 295.412C57.3613 294.945 57.3799 294.478 57.3986 294.011C57.4064 293.815 57.6237 293.658 57.8844 293.659C58.1453 293.661 58.351 293.822 58.3434 294.018C58.3247 294.485 58.3061 294.952 58.2875 295.42ZM65.1223 240.696C65.1752 240.887 65.0099 241.078 64.7542 241.121C64.4987 241.165 64.249 241.044 64.1962 240.853C64.1682 240.752 64.1176 240.586 64.0494 240.362C63.7008 239.22 62.8937 236.576 62.3074 233.397C62.0667 232.092 61.8632 230.696 61.7439 229.278C61.7094 228.867 61.6752 228.499 61.6425 228.149C61.5027 226.65 60.8312 225.446 60.8585 222.579C60.8953 218.718 61.0434 214.857 61.2006 210.998C61.505 203.528 61.8439 196.062 61.4768 188.599C61.4414 187.879 61.3994 187.159 61.3501 186.439C61.1124 182.963 61.0768 179.497 61.0927 176.018C61.1059 173.118 61.5906 167.803 61.6402 166.552C61.648 166.356 61.8662 166.199 62.1272 166.201C62.388 166.203 62.5927 166.363 62.585 166.559C62.5357 167.801 62.0518 173.099 62.0386 175.988C62.0228 179.46 62.0577 182.919 62.2949 186.389C62.3453 187.125 62.3924 187.862 62.4364 188.599C62.8817 196.057 63.0098 203.528 63.0146 210.998C63.017 214.864 62.9864 218.73 62.9496 222.595C62.9226 225.434 62.4457 226.59 62.585 228.084C62.6178 228.435 62.6527 228.805 62.6875 229.219C62.8087 230.66 63.0177 232.076 63.2643 233.397C63.8404 236.481 64.6218 239.044 64.9697 240.185C65.04 240.416 65.0927 240.589 65.1223 240.696ZM64.7274 249.816C64.7814 251.471 64.7219 253.654 64.6412 255.796C64.6152 256.487 64.5869 257.174 64.5596 257.837C64.505 259.164 64.4534 260.397 64.4315 261.384C64.3976 262.913 64.1714 263.876 63.9468 264.831C63.9445 264.841 63.9422 264.852 63.9399 264.862C63.7155 265.816 63.4947 266.771 63.4599 268.324C63.4249 269.891 63.5786 272.058 63.7337 274.244C63.7337 274.245 63.7337 274.247 63.7337 274.249C63.8298 275.604 64.1125 276.971 64.3031 278.194C64.4184 278.934 64.5 279.622 64.4862 280.222C64.3592 285.776 63.7098 289.201 63.2001 290.933C62.3084 293.962 63.3086 297.397 62.1808 300.491C61.931 300.833 61.2119 300.257 61.4189 299.628C61.4247 299.605 61.4305 299.582 61.4363 299.56C61.4906 299.343 61.5346 299.154 61.5703 298.887C61.5995 298.501 61.6015 298.213 61.6029 297.951C61.6067 297.263 61.7785 292.483 62.2763 290.792C62.76 289.149 62.2673 285.796 62.3951 280.207C62.4087 279.612 62.4914 278.93 62.58 278.194C62.7245 276.995 62.885 275.65 62.7889 274.295C62.7885 274.289 62.7881 274.283 62.7877 274.277C62.6338 272.107 62.4783 269.919 62.5139 268.327C62.55 266.717 62.7817 265.718 63.0091 264.752C63.0114 264.742 63.0137 264.733 63.016 264.724C63.2385 263.778 63.454 262.859 63.4867 261.386C63.5091 260.377 63.5598 259.13 63.6148 257.795C63.6417 257.143 63.6694 256.471 63.6951 255.796C63.7761 253.662 63.8364 251.496 63.7826 249.847C63.7763 249.651 63.983 249.485 64.2439 249.477C64.5047 249.468 64.7209 249.62 64.7274 249.816ZM70.6163 249.861C70.9528 251.837 71.1509 253.817 71.2281 255.796C71.3911 259.975 71.0144 264.148 70.2633 268.265C70.2279 269.848 70.1545 272.058 70.0804 274.264C70.0792 274.289 70.0781 274.314 70.0769 274.339C70.0321 275.674 69.9875 277.005 69.9514 278.194C69.9285 278.95 69.909 279.649 69.8952 280.255C69.7682 285.809 69.5975 289.246 69.0878 290.978C68.6125 292.592 68.6111 293.04 68.6079 293.705C68.6075 293.723 68.6071 293.741 68.6067 293.759C68.6075 293.76 68.6083 293.762 68.609 293.763C68.6212 293.786 68.6281 293.805 68.6312 293.815C68.6373 293.835 68.6396 293.851 68.6405 293.857C68.6425 293.871 68.6427 293.883 68.6428 293.887C68.6435 293.905 68.6433 293.924 68.6428 293.937C68.6381 294.055 68.6095 294.426 68.5706 294.72C68.5307 295.02 68.4793 295.235 68.4226 295.461C68.4168 295.484 68.411 295.507 68.4052 295.53C68.3538 295.734 68.298 295.955 68.2374 296.275C68.2004 296.469 67.9611 296.608 67.7027 296.584C67.4445 296.56 67.2651 296.383 67.3019 296.188C67.3657 295.852 67.4251 295.616 67.4767 295.411C67.4825 295.389 67.4883 295.366 67.4942 295.343C67.5484 295.127 67.5924 294.937 67.6281 294.67C67.6574 294.284 67.6593 293.997 67.6608 293.735C67.6645 293.047 67.6674 292.529 68.1652 290.838C68.649 289.195 68.8225 285.847 68.9504 280.257C68.9643 279.65 68.9837 278.95 69.0066 278.194C69.0427 277.003 69.0873 275.671 69.1321 274.338C69.1329 274.312 69.1337 274.286 69.1344 274.261C69.2086 272.053 69.2832 269.847 69.3185 268.267C69.4122 264.081 69.2234 259.954 69.3093 255.796C69.3498 253.838 69.4511 251.873 69.6715 249.893C69.6343 248.754 69.6196 247.714 69.6062 246.75C69.5669 243.912 69.5361 241.735 68.962 239.659C68.8362 239.204 68.7293 238.011 68.5962 236.287C68.5572 235.782 68.5163 235.228 68.4716 234.629C68.4423 234.237 68.4116 233.826 68.3792 233.397C68.2902 232.217 68.1882 230.898 68.0673 229.461C68.0328 229.051 67.9987 228.683 67.966 228.332C67.8261 226.833 67.715 225.65 67.7423 222.782C67.7732 219.539 67.974 214.282 68.1463 210.998C68.1614 210.71 68.1763 210.437 68.1908 210.182C68.2811 208.599 68.3647 207.705 68.4343 207.072C68.4537 206.896 68.4724 206.741 68.489 206.599C68.5325 206.228 68.5657 205.94 68.5881 205.562C68.7488 202.842 68.6381 200.937 68.4075 197.817C68.3931 197.622 68.5931 197.451 68.8537 197.436C69.1143 197.422 69.3377 197.568 69.3523 197.764C69.5832 200.889 69.6958 202.822 69.5329 205.58C69.5096 205.974 69.4734 206.283 69.4292 206.66C69.4128 206.8 69.3951 206.95 69.3767 207.117C69.3083 207.739 69.2254 208.623 69.1356 210.198C69.1213 210.448 69.1067 210.716 69.0919 210.998C68.9199 214.275 68.7191 219.535 68.6883 222.774C68.6612 225.613 68.7691 226.773 68.9084 228.267C68.9412 228.618 68.9761 228.988 69.011 229.402C69.1338 230.862 69.2375 232.202 69.3278 233.397C69.3588 233.808 69.3883 234.202 69.4164 234.578C69.4611 235.176 69.5022 235.729 69.541 236.232C69.6768 237.991 69.7803 239.112 69.8882 239.501C70.4823 241.65 70.514 243.922 70.5534 246.786C70.5665 247.74 70.5803 248.759 70.6163 249.861ZM68.6184 186.572C68.6317 186.768 68.4306 186.937 68.1698 186.951C67.9092 186.965 67.6869 186.818 67.6736 186.622C67.6029 185.589 67.5446 184.846 67.4988 184.265C67.4141 183.191 67.3728 182.671 67.38 181.893C67.3987 179.885 67.4082 177.946 67.4161 176.202C67.4293 173.302 67.4399 170.939 67.4895 169.688C67.4973 169.492 67.7155 169.334 67.9765 169.336C68.2372 169.339 68.442 169.499 68.4343 169.695C68.385 170.937 68.374 173.282 68.3609 176.171C68.353 177.918 68.3448 179.863 68.326 181.884C68.3189 182.639 68.3572 183.129 68.4401 184.18C68.4859 184.76 68.5458 185.511 68.6184 186.572Z" fill="white"/>
<path d="M62.3301 40.1988C96.1909 40.1989 123.641 67.6486 123.642 101.509C123.642 135.37 96.1912 162.821 62.3301 162.821C28.4692 162.821 1.01954 135.37 1.01954 101.509C1.01996 67.6488 28.4694 40.1991 62.3301 40.1988ZM42.7618 59.9763C37.0785 59.9766 32.4712 67.3275 32.4712 76.3952C32.4712 85.4631 37.0791 92.8142 42.7626 92.8142L82.992 92.8141C88.6753 92.8137 93.2827 85.4628 93.2827 76.3952C93.2827 67.3272 88.6747 59.9762 82.9913 59.9762L42.7618 59.9763Z" fill="url(#paint1_linear_255_189)"/>
<path d="M62.3301 40.1988L62.3301 39.6988L62.3301 39.6988L62.3301 40.1988ZM123.642 101.509L124.142 101.509L124.142 101.509L123.642 101.509ZM62.3301 162.821L62.3301 163.321L62.3301 163.321L62.3301 162.821ZM1.01954 101.509L0.51954 101.509L0.51954 101.509H1.01954ZM42.7618 59.9763L42.7618 59.4763L42.7618 59.4763L42.7618 59.9763ZM32.4712 76.3952L31.9712 76.3952L31.9712 76.3952L32.4712 76.3952ZM42.7626 92.8142L42.7626 93.3142L42.7626 93.3142L42.7626 92.8142ZM82.992 92.8141L82.9921 93.3141L82.9921 93.3141L82.992 92.8141ZM93.2827 76.3952L93.7827 76.3952L93.7827 76.3952L93.2827 76.3952ZM82.9913 59.9762L82.9913 59.4762L82.9913 59.4762L82.9913 59.9762ZM62.3301 40.1988L62.3301 40.6988C95.9148 40.6989 123.141 67.9248 123.142 101.509L123.642 101.509L124.142 101.509C124.141 67.3725 96.4671 39.6989 62.3301 39.6988L62.3301 40.1988ZM123.642 101.509H123.142C123.142 135.094 95.9151 162.321 62.3301 162.321L62.3301 162.821L62.3301 163.321C96.4673 163.321 124.142 135.647 124.142 101.509L123.642 101.509ZM62.3301 162.821L62.3301 162.321C28.7453 162.321 1.51954 135.094 1.51954 101.509H1.01954H0.51954C0.51954 135.647 28.193 163.321 62.3301 163.321L62.3301 162.821ZM1.01954 101.509L1.51954 101.509C1.51996 67.9249 28.7456 40.6991 62.3301 40.6988L62.3301 40.1988L62.3301 39.6988C28.1933 39.6991 0.519962 67.3726 0.51954 101.509L1.01954 101.509ZM42.7618 59.9763L42.7618 59.4763C39.6862 59.4764 36.9768 61.4642 35.0616 64.5199C33.1421 67.5825 31.9712 71.7824 31.9712 76.3952L32.4712 76.3952L32.9712 76.3952C32.9712 71.9403 34.1039 67.9308 35.9089 65.051C37.7182 62.1642 40.1541 60.4764 42.7618 60.4763L42.7618 59.9763ZM32.4712 76.3952L31.9712 76.3952C31.9712 81.0082 33.1422 85.2081 35.0619 88.2707C36.9773 91.3265 39.6869 93.3142 42.7626 93.3142L42.7626 92.8142L42.7626 92.3142C40.1548 92.3142 37.7187 90.6264 35.9092 87.7396C34.1041 84.8597 32.9712 80.8502 32.9712 76.3952L32.4712 76.3952ZM42.7626 92.8142L42.7626 93.3142L82.9921 93.3141L82.992 92.8141L82.992 92.3141L42.7626 92.3142L42.7626 92.8142ZM82.992 92.8141L82.9921 93.3141C86.0676 93.3139 88.777 91.3261 90.6922 88.2704C92.6118 85.2078 93.7827 81.008 93.7827 76.3952L93.2827 76.3952L92.7827 76.3952C92.7827 80.85 91.6499 84.8595 89.8449 87.7393C88.0356 90.6261 85.5997 92.3139 82.992 92.3141L82.992 92.8141ZM93.2827 76.3952L93.7827 76.3952C93.7827 71.7822 92.6116 67.5823 90.6919 64.5197C88.7765 61.4639 86.0669 59.4762 82.9913 59.4762L82.9913 59.9762L82.9913 60.4762C85.5991 60.4762 88.0351 62.164 89.8446 65.0508C91.6498 67.9306 92.7827 71.9402 92.7827 76.3952L93.2827 76.3952ZM82.9913 59.9762L82.9913 59.4762L42.7618 59.4763L42.7618 59.9763L42.7618 60.4763L82.9913 60.4762L82.9913 59.9762Z" fill="#FF7BAC"/>
<path d="M83.5957 191.92C83.5957 188.226 86.5906 185.231 90.2849 185.231V185.231C93.9793 185.231 96.9741 188.226 96.9741 191.92V294.691H83.5957V191.92Z" fill="#D9D9D9"/>
<path d="M107.918 94.0148C83.0649 94.0148 62.9177 73.8676 62.9177 49.0147C62.9177 24.1618 83.0649 4.01453 107.918 4.01453C132.771 4.01453 152.918 24.1618 152.918 49.0147C152.918 73.8676 132.771 94.0148 107.918 94.0148Z" stroke="#C6C6C6" stroke-width="8" stroke-miterlimit="10"/>
<defs>
<linearGradient id="paint0_linear_255_189" x1="576.019" y1="41" x2="576.019" y2="398" gradientUnits="userSpaceOnUse">
<stop stop-color="#FF0B8F"/>
<stop offset="1" stop-color="#F46767"/>
</linearGradient>
<linearGradient id="paint1_linear_255_189" x1="73.8014" y1="162.213" x2="62.3293" y2="162.213" gradientUnits="userSpaceOnUse">
<stop/>
<stop offset="1" stop-color="#212121"/>
</linearGradient>
</defs>
</svg>
