<svg width="112" height="64" viewBox="0 0 112 64" fill="none" xmlns="http://www.w3.org/2000/svg">
<path d="M2.19567 1.11179H0.347725C0.251199 1.11179 0.169792 1.0769 0.10234 1.0048C0.0348885 0.933858 0.00116276 0.847799 0.00116276 0.745458C0.00116276 0.623347 0.0348887 0.527985 0.103503 0.457044C0.172118 0.386104 0.254688 0.350052 0.352377 0.350052H9.03038C10.3945 0.350052 11.7087 0.681495 12.9751 1.34555C13.8706 1.83283 14.7138 2.58875 15.5023 3.61332C16.2907 4.63788 16.8804 5.6578 17.27 6.6719C17.7956 8.05699 18.0584 9.65722 18.0584 11.4714V14.544C18.0584 16.7094 17.6584 18.5969 16.8583 20.2064C16.0581 21.816 14.9801 23.0848 13.6241 24.0105C12.2681 24.9373 10.8388 25.4002 9.33624 25.4002H8.2826V43.6029H10.0387C10.1364 43.6029 10.2189 43.6366 10.2875 43.7052C10.3562 43.7738 10.3899 43.8657 10.3899 43.9831C10.3899 44.1006 10.3562 44.1925 10.2875 44.2611C10.2189 44.3297 10.1364 44.3634 10.0398 44.3634H0.351214C0.253525 44.3634 0.170955 44.3297 0.10234 44.2611C0.0337255 44.1925 0 44.1006 0 43.9831C0 43.8657 0.0337257 43.7738 0.101177 43.7052C0.168629 43.6366 0.250036 43.6029 0.346562 43.6029H2.1945V1.11179H2.19567ZM8.2826 1.11179V24.6408H9.36531C10.1061 24.6408 10.712 24.4024 11.1795 23.9256C11.6482 23.4488 11.882 22.7824 11.882 21.9264V4.03082C11.882 3.03881 11.6575 2.2701 11.2086 1.72467C10.8772 1.31531 10.3992 1.11179 9.77468 1.11179H8.2826Z" fill="#E72479"/>
<path d="M21.1305 13.7253H19.9897C19.8722 13.7253 19.7803 13.6915 19.7117 13.6229C19.6431 13.5543 19.6094 13.4624 19.6094 13.345C19.6094 13.2275 19.6431 13.1356 19.7117 13.067C19.7803 12.9984 19.8734 12.9647 19.9908 12.9647H26.3685V43.6052H27.6268C27.7443 43.6052 27.8362 43.6389 27.9048 43.7075C27.9734 43.7761 28.0071 43.8785 28.0071 44.0145C28.0071 44.1122 27.9734 44.1948 27.9048 44.2634C27.8362 44.332 27.7431 44.3657 27.6257 44.3657H19.9897C19.7943 44.2297 19.6966 44.1029 19.6966 43.9855C19.6966 43.8494 19.7943 43.7226 19.9897 43.6052H21.1305V13.7253ZM20.7212 3.07254C20.7212 2.23405 21.0235 1.51185 21.6283 0.907109C22.233 0.30237 22.9447 0 23.7646 0C24.6427 0 25.3835 0.297718 25.9894 0.893153C26.5941 1.48859 26.8965 2.21544 26.8965 3.0737C26.8965 3.93197 26.5941 4.66463 25.9894 5.26821C25.3846 5.87178 24.6531 6.17532 23.7949 6.17532C22.9366 6.17532 22.2342 5.87295 21.6294 5.26821C21.0247 4.66347 20.7223 3.93197 20.7223 3.0737L20.7212 3.07254Z" fill="#E72479"/>
<path d="M30.8467 14.4091H29.5884L29.4128 14.3149C29.3546 14.1893 29.3255 14.016 29.3255 13.795C29.3255 13.6055 29.4128 13.4019 29.5884 13.181H35.9974V17.056C36.6801 15.3871 37.3534 14.2288 38.0163 13.5834C38.6792 12.9379 39.4793 12.6146 40.4155 12.6146C41.6634 12.6146 42.5519 13.1193 43.0787 14.1265C43.8393 15.5755 44.2196 17.6549 44.2196 20.3634V62.6545H45.2069C45.3267 62.6545 45.4209 62.7103 45.4907 62.8196C45.5604 62.9301 45.5953 63.0789 45.5953 63.2685C45.5953 63.4581 45.5604 63.6069 45.4918 63.7174C45.4232 63.8279 45.3302 63.8825 45.2116 63.8825H38.3978C38.2989 63.8825 38.2152 63.8279 38.1466 63.7174C38.078 63.6069 38.0431 63.4581 38.0431 63.2685C38.0431 63.0789 38.0768 62.9301 38.1454 62.8196C38.214 62.7091 38.2966 62.6545 38.3943 62.6545H38.9793V18.4259C38.9793 17.4502 38.9025 16.7955 38.7478 16.4652C38.5932 16.1349 38.3803 15.9686 38.1105 15.9686C37.6081 15.9686 37.1732 16.4256 36.8068 17.3386C36.2649 18.6934 35.9951 20.9147 35.9951 24.0012V62.6533H36.7266C36.9208 62.8743 37.0197 63.0789 37.0197 63.2673C37.0197 63.4557 36.922 63.6616 36.7266 63.8814H29.586C29.3907 63.6616 29.293 63.4557 29.293 63.2673C29.293 63.0789 29.3907 62.8743 29.586 62.6533H30.8444V14.4091H30.8467Z" fill="#E72479"/>
<path d="M53.7527 0.351215V29.5159L59.4407 17.5037C59.7849 16.7745 59.9582 16.1326 59.9582 15.5802C59.9582 15.1359 59.8431 14.7684 59.614 14.4777C59.3837 14.1881 59.0686 14.0032 58.6662 13.9264L57.5741 13.8392C57.459 13.7776 57.402 13.6659 57.402 13.502C57.402 13.3799 57.4358 13.2775 57.502 13.1949C57.5695 13.1135 57.6602 13.0728 57.7753 13.0728H64.1518C64.267 13.0728 64.3577 13.1135 64.4251 13.1949C64.4926 13.2775 64.5252 13.3799 64.5252 13.502C64.5252 13.6659 64.4868 13.7787 64.41 13.8392L63.5483 13.8974C63.2226 13.9171 62.9261 13.9741 62.6574 14.0707C62.1969 14.2625 61.7957 14.5998 61.4503 15.0789C61.2398 15.3929 60.7816 16.307 60.0768 17.8212L57.1857 23.8081L63.4343 43.9762H64.4112C64.5263 43.9762 64.6217 44.0111 64.6984 44.0797C64.7752 44.1494 64.8136 44.2425 64.8136 44.3599L64.7275 44.6251C64.6322 44.7042 64.5263 44.7437 64.4112 44.7437H56.8857C56.7705 44.7437 56.6798 44.71 56.6124 44.6402C56.5449 44.5716 56.5124 44.4774 56.5124 44.3599C56.5124 44.2425 56.5461 44.1494 56.6135 44.0797C56.681 44.0111 56.7729 43.9762 56.888 43.9762H58.3045L53.755 29.4834V43.9762H54.904C55.1145 44.1146 55.2203 44.2413 55.2203 44.3599C55.2203 44.4786 55.1145 44.6065 54.904 44.7437H47.4924C47.3773 44.7437 47.2866 44.71 47.2192 44.6402C47.1517 44.5716 47.1191 44.4774 47.1191 44.3599C47.1191 44.2425 47.1575 44.1494 47.2343 44.0797C47.311 44.0111 47.3971 43.9762 47.4924 43.9762H48.5554V1.11877H47.4924C47.3959 1.11877 47.3157 1.08272 47.2482 1.01178C47.1808 0.940836 47.1482 0.853614 47.1482 0.751274C47.1482 0.629163 47.1819 0.531474 47.2482 0.459371C47.3157 0.38843 47.3959 0.352378 47.4924 0.352378H53.755L53.7527 0.351215Z" fill="#E72479"/>
<path d="M76.6169 14.9836C77.2019 14.5149 77.7194 14.0032 78.1683 13.4473C78.6172 12.8914 78.9196 12.6135 79.0754 12.6135L79.222 12.6716L79.2801 12.9647V25.4897C79.2801 25.627 79.2406 25.734 79.1626 25.8119C79.0847 25.8898 78.9963 25.9293 78.8998 25.9293C78.7626 25.9293 78.6661 25.8805 78.6067 25.7828C78.5672 25.7049 78.5091 25.2269 78.4311 24.3489C78.3137 22.8859 77.9334 21.0275 77.2903 18.7737C76.6472 16.5198 76.0075 15.0475 75.3737 14.3544C74.7399 13.6624 74.0619 13.3159 73.3397 13.3159C72.871 13.3159 72.5396 13.438 72.3442 13.6822C72.1488 13.9264 72.0511 14.4486 72.0511 15.2476V41.0595C72.0511 42.1131 72.207 42.8399 72.5198 43.24C72.8315 43.6401 73.2606 43.8401 73.8072 43.8401C74.5096 43.8401 75.183 43.5528 75.8261 42.9772C76.4704 42.4027 76.9774 41.5584 77.3484 40.4454C78.1288 38.1823 78.5195 35.5773 78.5195 32.6315V30.9929C78.5195 30.7196 78.5684 30.5149 78.6661 30.3788L78.8998 30.2032C78.9975 30.2032 79.0754 30.2614 79.1336 30.3788C79.2313 30.5161 79.2801 30.7207 79.2801 30.9929V32.9245C79.2801 37.2752 78.5579 40.4849 77.1147 42.5527C76.1006 43.9971 74.812 44.7181 73.2513 44.7181C71.5348 44.7181 70.1299 43.9378 69.0367 42.3771C67.6121 40.3279 66.9004 36.7577 66.9004 31.6662V26.077C66.9004 21.0042 67.6807 17.3072 69.2414 14.9859C70.3148 13.4054 71.6406 12.6158 73.2211 12.6158C74.5864 12.6158 75.7179 13.4054 76.6158 14.9859L76.6169 14.9836Z" fill="white"/>
<path d="M83.1149 16.0663C83.3882 15.9686 83.6511 15.8953 83.9046 15.8465C84.1581 15.7976 84.3919 15.7732 84.607 15.7732C85.3874 15.7732 86.0456 16.0558 86.5829 16.6222C87.119 17.1885 87.3876 17.9293 87.3876 18.8469C87.3876 19.7645 87.1143 20.5344 86.5678 21.1007C86.0212 21.6671 85.2897 21.9497 84.3732 21.9497C83.4568 21.9497 82.7346 21.6624 82.2078 21.0868C81.681 20.5111 81.4182 19.6575 81.4182 18.5259C81.4182 16.8478 82.052 15.4429 83.3208 14.3114C84.5884 13.1798 86.3933 12.6135 88.7343 12.6135C90.8416 12.6135 92.3581 13.0089 93.285 13.7985C94.2119 14.5882 94.6747 15.5988 94.6747 16.828V42.1131C94.6747 42.4062 94.7515 42.6446 94.9073 42.8306C95.062 43.0167 95.2272 43.1086 95.4016 43.1086C95.8866 43.1086 96.3808 42.5922 96.8855 41.5572C97.0216 41.2455 97.1565 41.0885 97.2926 41.0885L97.6589 41.4107C97.6589 42.0945 97.2205 42.8155 96.3424 43.5761C95.4644 44.3367 94.4108 44.717 93.1815 44.717C92.1279 44.717 91.3126 44.4727 90.7381 43.9855C90.1625 43.4982 89.7287 42.6388 89.4356 41.4107C88.5378 42.7376 87.7528 43.6203 87.0795 44.0587C86.4061 44.4972 85.6106 44.717 84.6942 44.717C83.5824 44.717 82.7288 44.4285 82.1334 43.854C81.538 43.2795 81.2402 42.5225 81.2402 41.5863V30.5533C81.2402 29.3636 81.4984 28.4855 82.0159 27.9192C82.5323 27.354 84.0592 26.6515 86.5957 25.8119C87.7272 25.4223 88.6739 25.0315 89.4345 24.6408V16.2128C89.4345 15.3348 89.2053 14.6521 88.7471 14.1637C88.2889 13.6764 87.6888 13.4322 86.9469 13.4322C85.2304 13.4322 83.9523 14.3102 83.1126 16.0663H83.1149ZM89.4368 25.5479C88.1878 26.0352 87.383 26.5236 87.0225 27.0109C86.6608 27.4982 86.4805 28.2797 86.4805 29.3519V41.7316C86.4805 42.141 86.5538 42.4445 86.7003 42.6388C86.8469 42.8341 87.0271 42.9318 87.2423 42.9318C87.5539 42.9318 87.9052 42.6004 88.2959 41.9363C89.0565 40.7071 89.4368 39.2255 89.4368 37.488V25.5479Z" fill="white"/>
<path d="M99.4455 13.7252H98.2162C98.0988 13.7252 98.0069 13.6915 97.9383 13.6229C97.8697 13.5543 97.8359 13.4624 97.8359 13.345C97.8359 13.2275 97.8697 13.1356 97.9383 13.067C98.0069 12.9984 98.0988 12.9647 98.2162 12.9647H104.596V16.828C105.259 15.072 105.879 13.9311 106.455 13.4043C107.03 12.8774 107.64 12.6146 108.284 12.6146C109.162 12.6146 109.952 13.0531 110.654 13.9311C111.552 15.0627 112.001 16.4873 112.001 18.2038C112.001 19.6668 111.703 20.7751 111.108 21.5252C110.512 22.2765 109.854 22.6521 109.132 22.6521C108.547 22.6521 108.058 22.3986 107.669 21.8916C107.142 21.2089 106.879 20.2332 106.879 18.9655C106.879 17.6979 107.25 16.5175 107.991 15.3662C108.362 14.7812 108.547 14.3812 108.547 14.166C108.547 13.9904 108.478 13.8392 108.342 13.7125C108.205 13.5857 108.04 13.5217 107.844 13.5217C107.473 13.5217 107.122 13.6973 106.791 14.0485C106.224 14.6335 105.717 15.6918 105.268 17.2234C104.82 18.755 104.595 20.4972 104.595 22.4474V43.6063H106.087C106.223 43.6063 106.331 43.6459 106.409 43.7238C106.487 43.8017 106.527 43.8901 106.527 43.9866L106.44 44.2494C106.322 44.3274 106.206 44.3669 106.088 44.3669H98.2162C98.1185 44.3669 98.036 44.3332 97.9674 44.2646C97.8987 44.196 97.865 44.1041 97.865 43.9866C97.865 43.8692 97.8987 43.7773 97.9674 43.7087C98.036 43.6401 98.1185 43.6063 98.2162 43.6063H99.4455V13.7252Z" fill="white"/>
</svg>
