<svg width="18" height="18" viewBox="0 0 18 18" fill="none" xmlns="http://www.w3.org/2000/svg">
<circle cx="9" cy="9" r="2" fill="#AAAAAA"/>
<path fill-rule="evenodd" clip-rule="evenodd" d="M2.84621 11.117L1.52886 10.6937C1.21372 10.5924 1 10.2993 1 9.96836V8.03164C1 7.70071 1.21372 7.40756 1.52886 7.30631L2.84621 6.88307C3.24684 6.75436 3.46727 6.32525 3.33857 5.92463C3.31277 5.84436 3.27385 5.76893 3.22335 5.7014L2.66079 4.94908C2.43398 4.64576 2.46441 4.22188 2.73222 3.95406L3.95406 2.73222C4.22188 2.46441 4.64576 2.43398 4.94908 2.66079L5.7014 3.22335C6.0384 3.47534 6.51587 3.40644 6.76786 3.06944C6.81835 3.00192 6.85728 2.92649 6.88307 2.84621L7.30631 1.52886C7.40756 1.21372 7.70071 1 8.03164 1H9.96836C10.2993 1 10.5924 1.21372 10.6937 1.52886L11.117 2.84621C11.2456 3.24684 11.6748 3.46727 12.0754 3.33857C12.1556 3.31277 12.2311 3.27385 12.2986 3.22335L13.0509 2.66079C13.3542 2.43398 13.7781 2.46441 14.046 2.73222L15.2677 3.95406C15.5356 4.22188 15.566 4.64576 15.3392 4.94908L14.7766 5.7014C14.5246 6.0384 14.5936 6.51587 14.9306 6.76786C14.998 6.81835 15.0735 6.85728 15.1538 6.88307L16.4711 7.30631C16.7863 7.40756 17 7.70071 17 8.03164V9.96836C17 10.2993 16.7863 10.5924 16.4711 10.6937L15.1538 11.117C14.7532 11.2456 14.5327 11.6748 14.6614 12.0754C14.6872 12.1556 14.7261 12.2311 14.7766 12.2986L15.3392 13.0509C15.566 13.3542 15.5356 13.7781 15.2677 14.046L14.046 15.2677C13.7781 15.5356 13.3542 15.566 13.0509 15.3392L12.2986 14.7766C11.9616 14.5246 11.4842 14.5936 11.2322 14.9306C11.1817 14.998 11.1428 15.0735 11.117 15.1538L10.6937 16.4711C10.5924 16.7863 10.2993 17 9.96836 17H8.03164C7.70071 17 7.40756 16.7863 7.30631 16.4711L6.88307 15.1538C6.75436 14.7532 6.32525 14.5327 5.92463 14.6614C5.84436 14.6872 5.76893 14.7261 5.7014 14.7766L4.94908 15.3392C4.64576 15.566 4.22188 15.5356 3.95406 15.2677L2.73222 14.046C2.46441 13.7781 2.43398 13.3542 2.66079 13.0509L3.22335 12.2986C3.47534 11.9616 3.40644 11.4842 3.06944 11.2322C3.00192 11.1817 2.92649 11.1428 2.84621 11.117Z" stroke="#AAAAAA" stroke-width="2" stroke-linecap="round" stroke-linejoin="round"/>
</svg>
